<mxfile host="app.diagrams.net" agent="Mozilla/5.0 (Windows NT 10.0; Win64; x64) AppleWebKit/537.36 (KHTML, like Gecko) Chrome/136.0.0.0 Safari/537.36" version="26.2.14">
  <diagram name="Page-1" id="wqV3Y6xkF1rhMXLYV5Ee">
    <mxGraphModel dx="1587" dy="751" grid="1" gridSize="10" guides="1" tooltips="1" connect="1" arrows="1" fold="1" page="1" pageScale="1" pageWidth="827" pageHeight="1169" math="0" shadow="0">
      <root>
        <mxCell id="0" />
        <mxCell id="1" parent="0" />
        <mxCell id="q3N5eMRcA1RkEn3lRo9f-4" value="" style="edgeStyle=orthogonalEdgeStyle;rounded=0;orthogonalLoop=1;jettySize=auto;html=1;" edge="1" parent="1" source="q3N5eMRcA1RkEn3lRo9f-1" target="q3N5eMRcA1RkEn3lRo9f-3">
          <mxGeometry relative="1" as="geometry" />
        </mxCell>
        <mxCell id="q3N5eMRcA1RkEn3lRo9f-1" value="&lt;strong style=&quot;color: rgb(64, 64, 64); font-family: DeepSeek-CJK-patch, Inter, system-ui, -apple-system, BlinkMacSystemFont, &amp;quot;Segoe UI&amp;quot;, Roboto, &amp;quot;Noto Sans&amp;quot;, Ubuntu, Cantarell, &amp;quot;Helvetica Neue&amp;quot;, Oxygen, &amp;quot;Open Sans&amp;quot;, sans-serif; font-size: 16.002px; text-align: left; background-color: rgb(255, 255, 255);&quot;&gt;Идентификация участников&lt;/strong&gt;" style="rounded=0;whiteSpace=wrap;html=1;" vertex="1" parent="1">
          <mxGeometry x="95" y="200" width="150" height="60" as="geometry" />
        </mxCell>
        <mxCell id="q3N5eMRcA1RkEn3lRo9f-69" style="edgeStyle=orthogonalEdgeStyle;rounded=0;orthogonalLoop=1;jettySize=auto;html=1;entryX=0.5;entryY=0;entryDx=0;entryDy=0;" edge="1" parent="1" source="q3N5eMRcA1RkEn3lRo9f-2" target="q3N5eMRcA1RkEn3lRo9f-1">
          <mxGeometry relative="1" as="geometry" />
        </mxCell>
        <mxCell id="q3N5eMRcA1RkEn3lRo9f-2" value="&lt;strong style=&quot;color: rgb(64, 64, 64); font-family: DeepSeek-CJK-patch, Inter, system-ui, -apple-system, BlinkMacSystemFont, &amp;quot;Segoe UI&amp;quot;, Roboto, &amp;quot;Noto Sans&amp;quot;, Ubuntu, Cantarell, &amp;quot;Helvetica Neue&amp;quot;, Oxygen, &amp;quot;Open Sans&amp;quot;, sans-serif; font-size: 16.002px; text-align: left; background-color: rgb(255, 255, 255);&quot;&gt;Запуск процесса&lt;/strong&gt;" style="ellipse;whiteSpace=wrap;html=1;" vertex="1" parent="1">
          <mxGeometry x="110" y="90" width="120" height="80" as="geometry" />
        </mxCell>
        <mxCell id="q3N5eMRcA1RkEn3lRo9f-26" value="" style="edgeStyle=orthogonalEdgeStyle;rounded=0;orthogonalLoop=1;jettySize=auto;html=1;" edge="1" parent="1" source="q3N5eMRcA1RkEn3lRo9f-3" target="q3N5eMRcA1RkEn3lRo9f-25">
          <mxGeometry relative="1" as="geometry">
            <Array as="points">
              <mxPoint x="130" y="370" />
              <mxPoint x="80" y="370" />
            </Array>
          </mxGeometry>
        </mxCell>
        <mxCell id="q3N5eMRcA1RkEn3lRo9f-3" value="&lt;strong style=&quot;color: rgb(64, 64, 64); font-family: DeepSeek-CJK-patch, Inter, system-ui, -apple-system, BlinkMacSystemFont, &amp;quot;Segoe UI&amp;quot;, Roboto, &amp;quot;Noto Sans&amp;quot;, Ubuntu, Cantarell, &amp;quot;Helvetica Neue&amp;quot;, Oxygen, &amp;quot;Open Sans&amp;quot;, sans-serif; font-size: 16.002px; text-align: left; background-color: rgb(255, 255, 255);&quot;&gt;Определение глобальных целей системы&lt;/strong&gt;" style="rounded=0;whiteSpace=wrap;html=1;" vertex="1" parent="1">
          <mxGeometry x="85" y="280" width="170" height="70" as="geometry" />
        </mxCell>
        <mxCell id="q3N5eMRcA1RkEn3lRo9f-36" style="edgeStyle=orthogonalEdgeStyle;rounded=0;orthogonalLoop=1;jettySize=auto;html=1;entryX=0;entryY=0.5;entryDx=0;entryDy=0;" edge="1" parent="1" source="q3N5eMRcA1RkEn3lRo9f-13" target="q3N5eMRcA1RkEn3lRo9f-17">
          <mxGeometry relative="1" as="geometry" />
        </mxCell>
        <mxCell id="q3N5eMRcA1RkEn3lRo9f-13" value="&lt;span style=&quot;color: rgb(64, 64, 64); font-family: DeepSeek-CJK-patch, Inter, system-ui, -apple-system, BlinkMacSystemFont, &amp;quot;Segoe UI&amp;quot;, Roboto, &amp;quot;Noto Sans&amp;quot;, Ubuntu, Cantarell, &amp;quot;Helvetica Neue&amp;quot;, Oxygen, &amp;quot;Open Sans&amp;quot;, sans-serif; font-size: 16.002px; text-align: left; background-color: rgb(255, 255, 255);&quot;&gt;&lt;b&gt;&amp;nbsp;Переход к следующему этапу&lt;/b&gt;&lt;/span&gt;" style="rounded=0;whiteSpace=wrap;html=1;" vertex="1" parent="1">
          <mxGeometry x="274" y="282.5" width="140" height="75" as="geometry" />
        </mxCell>
        <mxCell id="q3N5eMRcA1RkEn3lRo9f-38" value="" style="edgeStyle=orthogonalEdgeStyle;rounded=0;orthogonalLoop=1;jettySize=auto;html=1;" edge="1" parent="1" source="q3N5eMRcA1RkEn3lRo9f-17" target="q3N5eMRcA1RkEn3lRo9f-37">
          <mxGeometry relative="1" as="geometry">
            <Array as="points">
              <mxPoint x="670" y="313" />
              <mxPoint x="670" y="313" />
            </Array>
          </mxGeometry>
        </mxCell>
        <mxCell id="q3N5eMRcA1RkEn3lRo9f-17" value="&lt;strong style=&quot;color: rgb(64, 64, 64); font-family: DeepSeek-CJK-patch, Inter, system-ui, -apple-system, BlinkMacSystemFont, &amp;quot;Segoe UI&amp;quot;, Roboto, &amp;quot;Noto Sans&amp;quot;, Ubuntu, Cantarell, &amp;quot;Helvetica Neue&amp;quot;, Oxygen, &amp;quot;Open Sans&amp;quot;, sans-serif; font-size: 16.002px; text-align: left; background-color: rgb(255, 255, 255);&quot;&gt;Сбор функциональных требований&lt;/strong&gt;" style="whiteSpace=wrap;html=1;rounded=0;" vertex="1" parent="1">
          <mxGeometry x="430" y="280" width="187.5" height="80" as="geometry" />
        </mxCell>
        <mxCell id="q3N5eMRcA1RkEn3lRo9f-28" value="" style="edgeStyle=orthogonalEdgeStyle;rounded=0;orthogonalLoop=1;jettySize=auto;html=1;" edge="1" parent="1" source="q3N5eMRcA1RkEn3lRo9f-25" target="q3N5eMRcA1RkEn3lRo9f-27">
          <mxGeometry relative="1" as="geometry" />
        </mxCell>
        <mxCell id="q3N5eMRcA1RkEn3lRo9f-25" value="&lt;span style=&quot;color: rgb(64, 64, 64); font-family: DeepSeek-CJK-patch, Inter, system-ui, -apple-system, BlinkMacSystemFont, &amp;quot;Segoe UI&amp;quot;, Roboto, &amp;quot;Noto Sans&amp;quot;, Ubuntu, Cantarell, &amp;quot;Helvetica Neue&amp;quot;, Oxygen, &amp;quot;Open Sans&amp;quot;, sans-serif; font-size: 16.002px; text-align: left; background-color: rgb(255, 255, 255);&quot;&gt;Проверка существования аналогичного проекта&lt;/span&gt;" style="whiteSpace=wrap;html=1;rounded=0;" vertex="1" parent="1">
          <mxGeometry x="20" y="385" width="160" height="85" as="geometry" />
        </mxCell>
        <mxCell id="q3N5eMRcA1RkEn3lRo9f-30" style="edgeStyle=orthogonalEdgeStyle;rounded=0;orthogonalLoop=1;jettySize=auto;html=1;entryX=0.75;entryY=1;entryDx=0;entryDy=0;" edge="1" parent="1" source="q3N5eMRcA1RkEn3lRo9f-27" target="q3N5eMRcA1RkEn3lRo9f-3">
          <mxGeometry relative="1" as="geometry">
            <Array as="points">
              <mxPoint x="290" y="370" />
              <mxPoint x="213" y="370" />
            </Array>
          </mxGeometry>
        </mxCell>
        <mxCell id="q3N5eMRcA1RkEn3lRo9f-27" value="&lt;div style=&quot;&quot;&gt;Адаптация ТЗ с учетом существующего решения&lt;/div&gt;" style="whiteSpace=wrap;html=1;rounded=0;align=center;" vertex="1" parent="1">
          <mxGeometry x="210" y="382.5" width="160" height="90" as="geometry" />
        </mxCell>
        <mxCell id="q3N5eMRcA1RkEn3lRo9f-32" value="" style="endArrow=classic;html=1;rounded=0;entryX=0.5;entryY=1;entryDx=0;entryDy=0;exitX=0.369;exitY=1.031;exitDx=0;exitDy=0;exitPerimeter=0;" edge="1" parent="1" source="q3N5eMRcA1RkEn3lRo9f-25" target="q3N5eMRcA1RkEn3lRo9f-13">
          <mxGeometry width="50" height="50" relative="1" as="geometry">
            <mxPoint x="80" y="490" as="sourcePoint" />
            <mxPoint x="470" y="460" as="targetPoint" />
            <Array as="points">
              <mxPoint x="79" y="490" />
              <mxPoint x="400" y="490" />
              <mxPoint x="400" y="370" />
              <mxPoint x="344" y="370" />
            </Array>
          </mxGeometry>
        </mxCell>
        <mxCell id="q3N5eMRcA1RkEn3lRo9f-59" style="edgeStyle=orthogonalEdgeStyle;rounded=0;orthogonalLoop=1;jettySize=auto;html=1;exitX=0.25;exitY=0;exitDx=0;exitDy=0;entryX=0.25;entryY=1;entryDx=0;entryDy=0;" edge="1" parent="1" source="q3N5eMRcA1RkEn3lRo9f-37" target="q3N5eMRcA1RkEn3lRo9f-39">
          <mxGeometry relative="1" as="geometry">
            <Array as="points">
              <mxPoint x="680" y="270" />
              <mxPoint x="637" y="270" />
            </Array>
          </mxGeometry>
        </mxCell>
        <mxCell id="q3N5eMRcA1RkEn3lRo9f-63" value="" style="edgeStyle=orthogonalEdgeStyle;rounded=0;orthogonalLoop=1;jettySize=auto;html=1;" edge="1" parent="1" source="q3N5eMRcA1RkEn3lRo9f-37" target="q3N5eMRcA1RkEn3lRo9f-62">
          <mxGeometry relative="1" as="geometry" />
        </mxCell>
        <mxCell id="q3N5eMRcA1RkEn3lRo9f-37" value="&lt;strong style=&quot;color: rgb(64, 64, 64); font-family: DeepSeek-CJK-patch, Inter, system-ui, -apple-system, BlinkMacSystemFont, &amp;quot;Segoe UI&amp;quot;, Roboto, &amp;quot;Noto Sans&amp;quot;, Ubuntu, Cantarell, &amp;quot;Helvetica Neue&amp;quot;, Oxygen, &amp;quot;Open Sans&amp;quot;, sans-serif; font-size: 16.002px; text-align: left; background-color: rgb(255, 255, 255);&quot;&gt;Структурирование ТЗ в соответствии с ГОСТ 34.602-89&lt;/strong&gt;&lt;span style=&quot;color: rgb(64, 64, 64); font-family: DeepSeek-CJK-patch, Inter, system-ui, -apple-system, BlinkMacSystemFont, &amp;quot;Segoe UI&amp;quot;, Roboto, &amp;quot;Noto Sans&amp;quot;, Ubuntu, Cantarell, &amp;quot;Helvetica Neue&amp;quot;, Oxygen, &amp;quot;Open Sans&amp;quot;, sans-serif; font-size: 16.002px; text-align: left; background-color: rgb(255, 255, 255);&quot;&gt;:&lt;/span&gt;" style="whiteSpace=wrap;html=1;rounded=0;" vertex="1" parent="1">
          <mxGeometry x="640" y="277.5" width="160" height="80" as="geometry" />
        </mxCell>
        <mxCell id="q3N5eMRcA1RkEn3lRo9f-41" style="edgeStyle=orthogonalEdgeStyle;rounded=0;orthogonalLoop=1;jettySize=auto;html=1;entryX=1;entryY=0.5;entryDx=0;entryDy=0;" edge="1" parent="1" source="q3N5eMRcA1RkEn3lRo9f-39" target="q3N5eMRcA1RkEn3lRo9f-40">
          <mxGeometry relative="1" as="geometry" />
        </mxCell>
        <mxCell id="q3N5eMRcA1RkEn3lRo9f-39" value="&lt;span style=&quot;color: rgb(64, 64, 64); font-family: DeepSeek-CJK-patch, Inter, system-ui, -apple-system, BlinkMacSystemFont, &amp;quot;Segoe UI&amp;quot;, Roboto, &amp;quot;Noto Sans&amp;quot;, Ubuntu, Cantarell, &amp;quot;Helvetica Neue&amp;quot;, Oxygen, &amp;quot;Open Sans&amp;quot;, sans-serif; text-align: left; background-color: rgb(255, 255, 255);&quot;&gt;&lt;font style=&quot;font-size: 14px;&quot;&gt;1. Назначение и область применения&lt;/font&gt;&lt;/span&gt;" style="rounded=0;whiteSpace=wrap;html=1;" vertex="1" parent="1">
          <mxGeometry x="600" y="200" width="150" height="60" as="geometry" />
        </mxCell>
        <mxCell id="q3N5eMRcA1RkEn3lRo9f-56" style="edgeStyle=orthogonalEdgeStyle;rounded=0;orthogonalLoop=1;jettySize=auto;html=1;entryX=0;entryY=0.5;entryDx=0;entryDy=0;" edge="1" parent="1" source="q3N5eMRcA1RkEn3lRo9f-40" target="q3N5eMRcA1RkEn3lRo9f-42">
          <mxGeometry relative="1" as="geometry">
            <mxPoint x="380" y="160" as="targetPoint" />
            <Array as="points">
              <mxPoint x="440" y="240" />
              <mxPoint x="440" y="150" />
            </Array>
          </mxGeometry>
        </mxCell>
        <mxCell id="q3N5eMRcA1RkEn3lRo9f-40" value="&lt;span style=&quot;color: rgb(64, 64, 64); font-family: DeepSeek-CJK-patch, Inter, system-ui, -apple-system, BlinkMacSystemFont, &amp;quot;Segoe UI&amp;quot;, Roboto, &amp;quot;Noto Sans&amp;quot;, Ubuntu, Cantarell, &amp;quot;Helvetica Neue&amp;quot;, Oxygen, &amp;quot;Open Sans&amp;quot;, sans-serif; font-size: 16.002px; text-align: left; background-color: rgb(255, 255, 255);&quot;&gt;2. Цели разработки&lt;/span&gt;" style="rounded=0;whiteSpace=wrap;html=1;" vertex="1" parent="1">
          <mxGeometry x="450" y="200" width="120" height="60" as="geometry" />
        </mxCell>
        <mxCell id="q3N5eMRcA1RkEn3lRo9f-55" style="edgeStyle=orthogonalEdgeStyle;rounded=0;orthogonalLoop=1;jettySize=auto;html=1;entryX=0;entryY=0.5;entryDx=0;entryDy=0;" edge="1" parent="1" source="q3N5eMRcA1RkEn3lRo9f-42" target="q3N5eMRcA1RkEn3lRo9f-44">
          <mxGeometry relative="1" as="geometry" />
        </mxCell>
        <mxCell id="q3N5eMRcA1RkEn3lRo9f-42" value="&lt;span style=&quot;color: rgb(64, 64, 64); font-family: DeepSeek-CJK-patch, Inter, system-ui, -apple-system, BlinkMacSystemFont, &amp;quot;Segoe UI&amp;quot;, Roboto, &amp;quot;Noto Sans&amp;quot;, Ubuntu, Cantarell, &amp;quot;Helvetica Neue&amp;quot;, Oxygen, &amp;quot;Open Sans&amp;quot;, sans-serif; font-size: 16.002px; text-align: left; background-color: rgb(255, 255, 255);&quot;&gt;3. Функции системы&lt;/span&gt;" style="whiteSpace=wrap;html=1;rounded=0;" vertex="1" parent="1">
          <mxGeometry x="460" y="120" width="120" height="60" as="geometry" />
        </mxCell>
        <mxCell id="q3N5eMRcA1RkEn3lRo9f-47" value="" style="edgeStyle=orthogonalEdgeStyle;rounded=0;orthogonalLoop=1;jettySize=auto;html=1;" edge="1" parent="1" source="q3N5eMRcA1RkEn3lRo9f-44" target="q3N5eMRcA1RkEn3lRo9f-46">
          <mxGeometry relative="1" as="geometry" />
        </mxCell>
        <mxCell id="q3N5eMRcA1RkEn3lRo9f-44" value="&lt;span style=&quot;color: rgb(64, 64, 64); font-family: DeepSeek-CJK-patch, Inter, system-ui, -apple-system, BlinkMacSystemFont, &amp;quot;Segoe UI&amp;quot;, Roboto, &amp;quot;Noto Sans&amp;quot;, Ubuntu, Cantarell, &amp;quot;Helvetica Neue&amp;quot;, Oxygen, &amp;quot;Open Sans&amp;quot;, sans-serif; font-size: 16.002px; text-align: left; background-color: rgb(255, 255, 255);&quot;&gt;4. Условия эксплуатации&lt;/span&gt;" style="whiteSpace=wrap;html=1;rounded=0;" vertex="1" parent="1">
          <mxGeometry x="610" y="120" width="120" height="60" as="geometry" />
        </mxCell>
        <mxCell id="q3N5eMRcA1RkEn3lRo9f-49" value="" style="edgeStyle=orthogonalEdgeStyle;rounded=0;orthogonalLoop=1;jettySize=auto;html=1;" edge="1" parent="1" source="q3N5eMRcA1RkEn3lRo9f-46" target="q3N5eMRcA1RkEn3lRo9f-48">
          <mxGeometry relative="1" as="geometry" />
        </mxCell>
        <mxCell id="q3N5eMRcA1RkEn3lRo9f-46" value="&lt;span style=&quot;color: rgb(64, 64, 64); font-family: DeepSeek-CJK-patch, Inter, system-ui, -apple-system, BlinkMacSystemFont, &amp;quot;Segoe UI&amp;quot;, Roboto, &amp;quot;Noto Sans&amp;quot;, Ubuntu, Cantarell, &amp;quot;Helvetica Neue&amp;quot;, Oxygen, &amp;quot;Open Sans&amp;quot;, sans-serif; font-size: 16.002px; text-align: left; background-color: rgb(255, 255, 255);&quot;&gt;5. Технические требования&lt;/span&gt;" style="whiteSpace=wrap;html=1;rounded=0;" vertex="1" parent="1">
          <mxGeometry x="750" y="120" width="120" height="60" as="geometry" />
        </mxCell>
        <mxCell id="q3N5eMRcA1RkEn3lRo9f-48" value="&lt;span style=&quot;color: rgb(64, 64, 64); font-family: DeepSeek-CJK-patch, Inter, system-ui, -apple-system, BlinkMacSystemFont, &amp;quot;Segoe UI&amp;quot;, Roboto, &amp;quot;Noto Sans&amp;quot;, Ubuntu, Cantarell, &amp;quot;Helvetica Neue&amp;quot;, Oxygen, &amp;quot;Open Sans&amp;quot;, sans-serif; font-size: 16.002px; text-align: left; background-color: rgb(255, 255, 255);&quot;&gt;6. Интерфейсы и интеграция&lt;/span&gt;" style="whiteSpace=wrap;html=1;rounded=0;" vertex="1" parent="1">
          <mxGeometry x="910" y="120" width="120" height="60" as="geometry" />
        </mxCell>
        <mxCell id="q3N5eMRcA1RkEn3lRo9f-61" value="" style="edgeStyle=orthogonalEdgeStyle;rounded=0;orthogonalLoop=1;jettySize=auto;html=1;" edge="1" parent="1" source="q3N5eMRcA1RkEn3lRo9f-50" target="q3N5eMRcA1RkEn3lRo9f-52">
          <mxGeometry relative="1" as="geometry" />
        </mxCell>
        <mxCell id="q3N5eMRcA1RkEn3lRo9f-50" value="&lt;span style=&quot;color: rgb(64, 64, 64); font-family: DeepSeek-CJK-patch, Inter, system-ui, -apple-system, BlinkMacSystemFont, &amp;quot;Segoe UI&amp;quot;, Roboto, &amp;quot;Noto Sans&amp;quot;, Ubuntu, Cantarell, &amp;quot;Helvetica Neue&amp;quot;, Oxygen, &amp;quot;Open Sans&amp;quot;, sans-serif; text-align: left; background-color: rgb(255, 255, 255);&quot;&gt;&lt;font style=&quot;font-size: 14px;&quot;&gt;7. Требования к документации&lt;/font&gt;&lt;/span&gt;" style="whiteSpace=wrap;html=1;rounded=0;" vertex="1" parent="1">
          <mxGeometry x="920" y="200" width="120" height="60" as="geometry" />
        </mxCell>
        <mxCell id="q3N5eMRcA1RkEn3lRo9f-66" style="edgeStyle=orthogonalEdgeStyle;rounded=0;orthogonalLoop=1;jettySize=auto;html=1;entryX=0.5;entryY=0;entryDx=0;entryDy=0;" edge="1" parent="1">
          <mxGeometry relative="1" as="geometry">
            <mxPoint x="880" y="260" as="sourcePoint" />
            <mxPoint x="760" y="277.5" as="targetPoint" />
            <Array as="points">
              <mxPoint x="840" y="260" />
              <mxPoint x="840" y="270" />
              <mxPoint x="760" y="270" />
            </Array>
          </mxGeometry>
        </mxCell>
        <mxCell id="q3N5eMRcA1RkEn3lRo9f-52" value="&lt;span style=&quot;color: rgb(64, 64, 64); font-family: DeepSeek-CJK-patch, Inter, system-ui, -apple-system, BlinkMacSystemFont, &amp;quot;Segoe UI&amp;quot;, Roboto, &amp;quot;Noto Sans&amp;quot;, Ubuntu, Cantarell, &amp;quot;Helvetica Neue&amp;quot;, Oxygen, &amp;quot;Open Sans&amp;quot;, sans-serif; text-align: left; background-color: rgb(255, 255, 255);&quot;&gt;&lt;font style=&quot;font-size: 14px;&quot;&gt;8. Порядок контроля и приемки&lt;/font&gt;&lt;/span&gt;" style="whiteSpace=wrap;html=1;rounded=0;" vertex="1" parent="1">
          <mxGeometry x="780" y="200" width="120" height="60" as="geometry" />
        </mxCell>
        <mxCell id="q3N5eMRcA1RkEn3lRo9f-65" value="" style="edgeStyle=orthogonalEdgeStyle;rounded=0;orthogonalLoop=1;jettySize=auto;html=1;" edge="1" parent="1" source="q3N5eMRcA1RkEn3lRo9f-62" target="q3N5eMRcA1RkEn3lRo9f-64">
          <mxGeometry relative="1" as="geometry" />
        </mxCell>
        <mxCell id="q3N5eMRcA1RkEn3lRo9f-62" value="&lt;strong style=&quot;color: rgb(64, 64, 64); font-family: DeepSeek-CJK-patch, Inter, system-ui, -apple-system, BlinkMacSystemFont, &amp;quot;Segoe UI&amp;quot;, Roboto, &amp;quot;Noto Sans&amp;quot;, Ubuntu, Cantarell, &amp;quot;Helvetica Neue&amp;quot;, Oxygen, &amp;quot;Open Sans&amp;quot;, sans-serif; font-size: 16.002px; text-align: left; background-color: rgb(255, 255, 255);&quot;&gt;Согласование проекта ТЗ со всеми участниками&lt;/strong&gt;" style="whiteSpace=wrap;html=1;rounded=0;" vertex="1" parent="1">
          <mxGeometry x="820" y="277.5" width="120" height="80" as="geometry" />
        </mxCell>
        <mxCell id="q3N5eMRcA1RkEn3lRo9f-68" value="" style="edgeStyle=orthogonalEdgeStyle;rounded=0;orthogonalLoop=1;jettySize=auto;html=1;" edge="1" parent="1" source="q3N5eMRcA1RkEn3lRo9f-64" target="q3N5eMRcA1RkEn3lRo9f-67">
          <mxGeometry relative="1" as="geometry" />
        </mxCell>
        <mxCell id="q3N5eMRcA1RkEn3lRo9f-64" value="&lt;strong style=&quot;color: rgb(64, 64, 64); font-family: DeepSeek-CJK-patch, Inter, system-ui, -apple-system, BlinkMacSystemFont, &amp;quot;Segoe UI&amp;quot;, Roboto, &amp;quot;Noto Sans&amp;quot;, Ubuntu, Cantarell, &amp;quot;Helvetica Neue&amp;quot;, Oxygen, &amp;quot;Open Sans&amp;quot;, sans-serif; font-size: 16.002px; text-align: left; background-color: rgb(255, 255, 255);&quot;&gt;Внесение требуемых корректировок&lt;/strong&gt;" style="whiteSpace=wrap;html=1;rounded=0;" vertex="1" parent="1">
          <mxGeometry x="960" y="277.5" width="130" height="80" as="geometry" />
        </mxCell>
        <mxCell id="q3N5eMRcA1RkEn3lRo9f-67" value="&lt;b&gt;&lt;font style=&quot;font-size: 16px;&quot;&gt;Утверждение и архивация финального ТЗ&lt;/font&gt;&lt;/b&gt;" style="whiteSpace=wrap;html=1;rounded=0;" vertex="1" parent="1">
          <mxGeometry x="1110" y="277.5" width="120" height="80" as="geometry" />
        </mxCell>
        <mxCell id="q3N5eMRcA1RkEn3lRo9f-70" style="edgeStyle=orthogonalEdgeStyle;rounded=0;orthogonalLoop=1;jettySize=auto;html=1;entryX=0.417;entryY=0;entryDx=0;entryDy=0;entryPerimeter=0;" edge="1" parent="1" source="q3N5eMRcA1RkEn3lRo9f-48" target="q3N5eMRcA1RkEn3lRo9f-50">
          <mxGeometry relative="1" as="geometry" />
        </mxCell>
      </root>
    </mxGraphModel>
  </diagram>
</mxfile>
